<svg xmlns="http://www.w3.org/2000/svg" width="160" height="50" viewBox="0 0 160 50">
  <path data-name="Union 49" d="m107.59 42.45 4.087-1.4a4.891 4.891 0 1 0 4.626-6.48v-.025a9.2 9.2 0 1 1 5.9-2.152 9.209 9.209 0 1 1-14.612 10.061Zm3.8-17.095a4.922 4.922 0 0 0 4.916 4.917v-.026c.129 0 .256 0 .383.01a4.916 4.916 0 1 0-5.3-4.9Zm16.319 9.428 7.969-23.54h4.511l-7.968 23.54Zm-63.745-9.215v-9.257h4.32v9.257a4.89 4.89 0 1 0 9.78 0v-9.257h4.32v9.257a9.211 9.211 0 0 1-18.422 0ZM46.87 34.779v-4.711h4.377a3.766 3.766 0 0 0 3.766-3.767V11.244h4.719v15.053a8.487 8.487 0 0 1-8.487 8.486Zm52.984-.171v-9.256a4.891 4.891 0 0 0-9.781 0v9.256h-4.32v-9.257a9.211 9.211 0 0 1 18.422 0v9.256Zm44.288-1.48a9.129 9.129 0 0 1-4.058-5.7 9.289 9.289 0 0 1 1.1-6.871 8.977 8.977 0 0 1 12.5-2.921 9.1 9.1 0 0 1 3.382 3.775 8.778 8.778 0 0 1 .677 1.922l.284 1.139-13.708 3.2a5.171 5.171 0 0 0 5.769 2.813 5.1 5.1 0 0 0 3.524-2.92l3.56 1.638a9.3 9.3 0 0 1-2.421 3.2 8.786 8.786 0 0 1-3.774 1.887 9.2 9.2 0 0 1-2.04.231 8.878 8.878 0 0 1-4.795-1.389Zm3.6-12.854a5.167 5.167 0 0 0-3.916 4.237l9.257-2.172a5.151 5.151 0 0 0-5.341-2.065Zm-20.881-9.306-1.884-4.824v4.288l.269.536h-2.333l.269-.536v-7.9l-.269-.536h2.153l1.884 4.826V2.533l-.268-.536h2.332l-.268.535v7.9l.269.536Zm-10.322 0-1.255-1.256V3.254l1.256-1.256h3.05l1.256 1.256v6.458l-1.255 1.256Zm.538-1.795h1.974V3.791h-1.974Zm-7.718 1.795.269-.536v-6.64h-1.432l-.537.27V1.998h5.737v2.07l-.538-.27h-1.435v6.64l.269.536Zm-8.889 0 .269-.536v-7.9l-.269-.536h5.293v2.072l-.538-.27h-2.693V5.61h1.8l.538-.271v2.329l-.538-.27h-1.8v3.034l.269.536Zm-4.276 0 .1-.663-.227-.876h-2.445l-.228.876.1.663h-2.243l.229-.494 2.12-7.956-.2-.521h2.871l-.2.521 2.121 7.956.229.494Zm-2.12-3.261h1.55l-.776-2.981Zm-7.112 3.261.036-.58-.751-2.048h-.63v2.092l.268.536h-2.333l.269-.536v-7.9l-.27-.536h4.4l1.256 1.256v3.831l-1.106 1.106.811 2.092.474.686Zm-1.345-4.422h1.794V3.791h-1.794Zm-6.545 4.422.027-.44-1.621-3.347h-.291v3.251l.27.536h-2.334l.27-.536v-7.9l-.27-.536h2.334l-.27.536v2.853h.312l1.6-2.962-.026-.427h2.332l-.435.551-1.941 3.5 2.1 4.226.547.69Z" fill="#05d182" />
  <path data-name="Union 50" d="m16.227 41.001-9.572-6.953-3.656-11.253 3.656-11.252 9.572-6.954h11.834l9.571 6.954 3.656 11.252-3.656 11.253-9.571 6.953Zm-7.293-27.8-3.118 9.6 3.118 9.6 8.163 5.931h10.09l8.163-5.931 3.118-9.6-3.118-9.6-8.163-5.931h-10.09Zm9.239 6.718 11.2-7.074-3.267 12.839-11.2 7.073Zm-.142 8.537 4.579-2.893 1.783-1.126-4.506-3.274Z" fill="#05d182" />
</svg>